<svg width="24" height="30" viewBox="0 0 24 30" fill="none" xmlns="http://www.w3.org/2000/svg">
<path d="M11.2561 29.7746C11.0866 29.7746 10.9254 29.6752 10.8548 29.5094L9.11354 25.4268C9.01904 25.2053 9.12203 24.9491 9.34365 24.8546C9.56533 24.7602 9.82144 24.8631 9.91594 25.0847L11.6572 29.1672C11.7517 29.3888 11.6487 29.645 11.427 29.7395C11.3712 29.7633 11.3132 29.7746 11.2561 29.7746ZM6.13865 29.7746C5.96914 29.7746 5.80793 29.6752 5.73728 29.5094C4.77816 27.2606 4.31194 24.9832 4.31194 22.5471C4.31194 20.8276 4.79991 19.2442 5.27182 17.7129C5.71588 16.2718 6.1354 14.9106 6.1354 13.5189C6.1354 13.1697 6.0923 12.8501 6.01682 12.5478C5.19017 12.8815 4.22611 13.0898 3.21465 12.9433C2.33439 12.8157 1.52838 12.3975 0.94528 11.7657C0.326879 11.0956 0 10.2499 0 9.31975C0 8.32486 0.388521 7.4143 1.09404 6.75589C1.77693 6.11859 2.70005 5.78159 3.7125 5.78636C3.82613 3.94052 4.62963 2.43528 6.05346 1.41324C7.32294 0.501862 9.06422 0 10.9564 0C11.8652 0 12.7357 0.100314 13.5436 0.298093C13.7775 0.355374 13.9208 0.591476 13.8635 0.825427C13.8063 1.05938 13.5703 1.20261 13.3362 1.14533C12.6065 0.966739 11.7836 0.872298 10.9564 0.872298C9.2452 0.872298 7.6846 1.31606 6.56212 2.12184C5.24077 3.07031 4.57078 4.45837 4.57078 6.24734C4.57078 7.92698 5.21047 9.02357 5.8291 10.084C6.06608 10.4903 6.30637 10.9021 6.50758 11.3439C6.99467 11.0717 7.43524 10.7544 7.79875 10.4382C7.62999 10.0807 7.5373 9.67146 7.5373 9.22717C7.5373 8.21647 8.32858 7.39412 9.30126 7.39412C9.70257 7.39412 10.086 7.5359 10.3934 7.78758C11.7348 6.26368 12.0211 4.89423 12.024 4.87958C12.0648 4.67552 12.2439 4.5288 12.4517 4.5288C12.4528 4.5288 12.452 4.52885 12.4553 4.5288C12.4812 4.5288 13.352 4.5256 14.2064 4.21721C15.2213 3.85079 15.7682 3.22087 15.8337 2.34375C15.5278 2.08316 15.1741 1.8541 14.7725 1.65673C14.5563 1.55048 14.4672 1.28914 14.5734 1.07293C14.6796 0.856713 14.941 0.767622 15.1572 0.873868C16.8925 1.72663 18.7886 3.58037 17.9675 7.56875C17.8579 8.1015 17.8484 8.44669 17.935 8.76026C18.0326 9.11389 18.2581 9.35999 18.497 9.62057C18.7743 9.9232 19.0887 10.2662 19.0887 10.7603C19.0887 11.3463 18.6239 11.9845 17.7551 12.149C17.4409 13.4915 17.103 14.5909 16.66 15.3792C16.785 15.3687 16.9112 15.3633 17.0381 15.3633C17.7065 15.3633 18.349 15.5089 18.9477 15.7961C19.1649 15.9002 19.2565 16.1608 19.1523 16.378C19.0481 16.5951 18.7877 16.6868 18.5705 16.5826C18.0905 16.3524 17.5749 16.2357 17.0381 16.2357C15.1387 16.2357 13.5673 17.7557 13.4927 19.6426C13.6832 19.91 13.8469 20.2005 13.9794 20.5111L14.3335 21.3415C14.4889 21.3479 14.6345 21.2588 14.6997 21.11C14.7965 20.8894 15.0538 20.7891 15.2743 20.8857C15.4949 20.9824 15.5953 21.2396 15.4986 21.4602C15.3412 21.8193 15.0378 22.07 14.6862 22.1684L15.3881 23.814C16.1531 24.3136 17.2217 24.1073 17.9864 23.7441C17.9891 23.0014 18.3684 22.3194 19.0423 21.9075L20.4167 21.0673C20.4171 21.0672 20.4174 21.0669 20.4177 21.0668C20.7448 20.8668 20.8906 20.6287 20.8906 20.2946C20.8906 20.0357 20.7246 19.817 20.5283 19.817C20.4128 19.817 20.3307 19.8912 20.292 19.9356C20.1334 20.1169 19.858 20.1354 19.6766 19.977C19.4952 19.8184 19.4767 19.5429 19.6352 19.3615C19.8573 19.1075 20.1659 18.9573 20.4874 18.9455C20.3499 18.3734 20.0717 17.8475 19.6678 17.4018C19.506 17.2233 19.5195 16.9475 19.698 16.7857C19.8765 16.624 20.1523 16.6375 20.3141 16.816C20.9567 17.525 21.3557 18.436 21.4408 19.3864C21.6408 19.6263 21.7629 19.9452 21.7629 20.2947C21.7629 20.4679 21.7401 20.6328 21.695 20.7883C21.8097 20.802 21.9236 20.8258 22.0356 20.8597C22.5773 21.0237 23.0243 21.4121 23.262 21.925C23.8792 23.257 24 25.6518 24 29.3383C24 29.5792 23.8047 29.7745 23.5639 29.7745C23.323 29.7745 23.1277 29.5792 23.1277 29.3383C23.1277 28.189 23.1194 27.0329 23.0697 25.9766H20.1875C19.2657 25.9766 18.4943 25.4535 18.1584 24.6232C17.465 24.9164 16.6382 25.0802 15.8632 24.9281L17.6655 29.1537C17.76 29.3752 17.657 29.6314 17.4354 29.7259C17.2139 29.8204 16.9576 29.7174 16.8631 29.4958L13.177 20.8534C12.589 19.4748 11.2405 18.5839 9.74171 18.5839C9.50084 18.5839 9.30556 18.3886 9.30556 18.1478C9.30556 17.9069 9.50084 17.7116 9.74171 17.7116C10.3535 17.7116 10.9448 17.8319 11.4887 18.0545V16.0023C11.1314 15.852 10.9014 15.7354 10.8742 15.7215C10.6598 15.6117 10.5749 15.349 10.6845 15.1345C10.7942 14.9201 11.0569 14.8352 11.2713 14.9448C11.2897 14.9542 13.1389 15.889 14.6444 15.889C15.3851 15.889 15.9375 15.222 16.4574 13.6052C15.8606 13.4929 15.2043 13.2014 14.8089 12.6484C14.6689 12.4524 14.7141 12.18 14.9101 12.0399C15.106 11.8999 15.3784 11.9451 15.5185 12.1411C15.7684 12.4905 16.2585 12.6936 16.7032 12.7622C16.7932 12.4244 16.883 12.056 16.9735 11.6555C17.0169 11.4633 17.1838 11.3241 17.3807 11.3158C17.7825 11.2991 18.2163 11.082 18.2163 10.7604C18.2163 10.613 18.0785 10.4552 17.8538 10.21C17.5837 9.91529 17.2476 9.54852 17.0941 8.9924C16.9849 8.59667 16.9758 8.18018 17.0683 7.63191C16.6346 7.28206 15.8723 7.10917 14.9933 7.16668C14.7534 7.18262 14.5453 7.00037 14.5296 6.75996C14.5138 6.51961 14.6959 6.31201 14.9363 6.29625C15.8322 6.23734 16.6332 6.38226 17.2297 6.7C17.4147 5.25856 17.1896 4.07067 16.5583 3.14551C16.2653 4.01275 15.5604 4.66139 14.4801 5.04572C13.8198 5.28066 13.1697 5.36039 12.7888 5.38737C12.598 5.99728 12.0571 7.34452 10.7105 8.72868C10.6831 8.75793 10.6515 8.78352 10.6166 8.80451C10.4284 8.91727 10.1859 8.87313 10.05 8.70123C10.04 8.68855 10.0307 8.67553 10.0223 8.66209C9.85429 8.41413 9.58557 8.26642 9.30126 8.26642C8.80957 8.26642 8.40959 8.69739 8.40959 9.22717C8.40959 10.2807 9.14285 11.0166 10.1928 11.0166C10.4337 11.0166 10.629 11.2119 10.629 11.4527C10.629 11.6936 10.4337 11.8889 10.1928 11.8889C9.4321 11.8889 8.77456 11.6153 8.30404 11.1523C7.99479 11.4126 7.47588 11.81 6.81625 12.1689C6.93512 12.582 7.00758 13.027 7.00758 13.5189C7.00758 14.9511 6.60202 16.3526 6.18483 17.7116H7.99723C8.2381 17.7116 8.43338 17.9069 8.43338 18.1478C8.43338 18.3886 8.2381 18.5839 7.99723 18.5839H5.91738C5.53159 19.8621 5.18418 21.1792 5.18418 22.5472C5.18418 24.8633 5.62754 27.0288 6.53962 29.1672C6.63412 29.3888 6.53113 29.645 6.30951 29.7395C6.25374 29.7633 6.19576 29.7746 6.13865 29.7746ZM20.8721 21.8115L19.4974 22.6518C18.8669 23.0372 18.7825 23.6729 18.9137 24.1394C19.045 24.6058 19.4486 25.1042 20.1876 25.1042H23.0168C22.9261 23.9205 22.763 22.9225 22.4707 22.2917C22.3355 22 22.0912 21.7879 21.7829 21.6945C21.4774 21.6019 21.1461 21.6442 20.8736 21.8105C20.8739 21.8104 20.8733 21.8107 20.8736 21.8105C20.8734 21.8107 20.8723 21.8113 20.8721 21.8115ZM12.3612 18.5271C12.4872 18.6141 12.6088 18.7075 12.7257 18.8068C12.9029 18.018 13.2944 17.2925 13.8696 16.7016C13.3409 16.625 12.8184 16.4834 12.3612 16.3311V18.5271ZM3.68284 6.65854C2.90237 6.65854 2.20168 6.91523 1.68918 7.39354C1.16237 7.88522 0.872298 8.56922 0.872298 9.31969C0.872298 10.7344 1.88696 11.8694 3.3398 12.08C4.13783 12.1955 4.96274 12.0303 5.72303 11.7219C5.54177 11.3225 5.31561 10.9348 5.07561 10.5235C4.47751 9.49822 3.80543 8.34603 3.71 6.65866C3.70099 6.6586 3.69191 6.65854 3.68284 6.65854ZM16.3005 23.2424C16.2572 23.2424 16.2147 23.2403 16.1731 23.2359C15.9336 23.2105 15.76 22.9956 15.7855 22.7561C15.8109 22.5166 16.025 22.3424 16.2652 22.3685C16.4178 22.3845 16.6817 22.2886 16.7881 22.1781C16.9553 22.0047 17.2314 21.9996 17.4048 22.1667C17.5783 22.3339 17.5834 22.61 17.4162 22.7834C17.1493 23.0605 16.6978 23.2424 16.3005 23.2424ZM17.2485 21.0747C17.0769 21.0747 16.9055 21.0391 16.7435 20.9681C16.523 20.8714 16.4225 20.6141 16.5192 20.3935C16.6159 20.1729 16.8731 20.0724 17.0938 20.1692C17.1883 20.2106 17.2932 20.2127 17.3893 20.1753C17.4854 20.1377 17.5612 20.065 17.6026 19.9705C17.6993 19.7499 17.9567 19.6494 18.1771 19.7462C18.3978 19.8429 18.4982 20.1001 18.4015 20.3207C18.2665 20.6286 18.0197 20.8655 17.7065 20.9878C17.5582 21.0458 17.4032 21.0747 17.2485 21.0747ZM15.191 9.97944C14.6887 9.97944 14.1841 9.76892 13.8358 9.39168C13.6723 9.21472 13.6834 8.93879 13.8603 8.77538C14.0374 8.61202 14.3134 8.62302 14.4767 8.79998C14.7169 9.06015 15.1133 9.17157 15.4403 9.07079C15.6706 8.99996 15.9146 9.12906 15.9854 9.35923C16.0563 9.58946 15.9272 9.83353 15.697 9.90442C15.5328 9.95501 15.362 9.97944 15.191 9.97944Z" fill="#454545"/>
</svg>
