<svg width="24" height="24" viewBox="0 0 24 24" fill="none" xmlns="http://www.w3.org/2000/svg">
<path d="M16.9861 23.9965H7.01246C5.88457 24.0384 4.7857 23.6335 3.95463 22.8698C3.12356 22.1061 2.62742 21.0453 2.57403 19.9179V14.5713C2.57403 14.344 2.6643 14.1261 2.82499 13.9654C2.98568 13.8047 3.20362 13.7144 3.43087 13.7144C3.65811 13.7144 3.87606 13.8047 4.03674 13.9654C4.19743 14.1261 4.28771 14.344 4.28771 14.5713V19.9179C4.34037 20.5909 4.65566 21.2162 5.16549 21.6587C5.67531 22.1012 6.33874 22.3254 7.01246 22.2828H16.9861C17.6598 22.3254 18.3232 22.1012 18.833 21.6587C19.3429 21.2162 19.6582 20.5909 19.7108 19.9179V14.5713C19.7108 14.344 19.8011 14.1261 19.9618 13.9654C20.1225 13.8047 20.3404 13.7144 20.5677 13.7144C20.7949 13.7144 21.0129 13.8047 21.1735 13.9654C21.3342 14.1261 21.4245 14.344 21.4245 14.5713V19.9179C21.3711 21.0453 20.875 22.1061 20.0439 22.8698C19.2128 23.6335 18.114 24.0384 16.9861 23.9965ZM23.7465 12.6091C23.8269 12.5294 23.8906 12.4347 23.9341 12.3303C23.9776 12.2258 24 12.1138 24 12.0007C24 11.8876 23.9776 11.7756 23.9341 11.6712C23.8906 11.5668 23.8269 11.472 23.7465 11.3924L12.6076 0.253452C12.528 0.173142 12.4332 0.109398 12.3288 0.065897C12.2244 0.0223963 12.1124 0 11.9993 0C11.8862 0 11.7742 0.0223963 11.6697 0.065897C11.5653 0.109398 11.4706 0.173142 11.3909 0.253452L0.251989 11.3924C0.0906433 11.5537 0 11.7726 0 12.0007C0 12.2289 0.0906433 12.4477 0.251989 12.6091C0.413336 12.7704 0.632168 12.8611 0.860346 12.8611C1.08852 12.8611 1.30736 12.7704 1.4687 12.6091L11.9993 2.06995L22.5298 12.6091C22.6095 12.6894 22.7043 12.7531 22.8087 12.7966C22.9131 12.8401 23.0251 12.8625 23.1382 12.8625C23.2513 12.8625 23.3633 12.8401 23.4677 12.7966C23.5721 12.7531 23.6669 12.6894 23.7465 12.6091Z" fill="#FF8686"/>
</svg>
