<svg width="26" height="26" viewBox="0 0 26 26" fill="none" xmlns="http://www.w3.org/2000/svg">
<path d="M7.39999 7.39998H7.40009C7.91226 7.39998 8.40346 7.19648 8.76565 6.83439C9.22604 6.37395 9.79999 5.8 9.79999 5.8H9.80009C11.8145 6.80725 14.1855 6.80725 16.1999 5.8H16.2C16.2 5.8 16.7739 6.37395 17.2344 6.83439C17.5965 7.19648 18.0878 7.39998 18.5999 7.39998H18.6M25 25C25 25 24.0234 22.0702 23.3162 19.9485C22.8719 18.6156 21.7607 17.6135 20.3892 17.3087C18.2728 16.8384 15.4 16.2 15.4 16.2M15.4 16.2L13 20.2L10.6 16.2M15.4 16.2L15.4 13.3845M10.6 16.2C10.6 16.2 7.72717 16.8384 5.61084 17.3087C4.23925 17.6135 3.12813 18.6156 2.68378 19.9485C1.97658 22.0702 1 25 1 25M10.6 16.2L10.6 13.3845M17 25H16.2V22.6C16.2 21.9635 16.4528 21.353 16.903 20.903C17.353 20.4528 17.9635 20.2 18.6 20.2C19.9255 20.2 21 21.2745 21 22.6V25H20.2M18.6 19.4V16.9111M7.39999 21.8C6.51692 21.8 5.80001 22.5169 5.80001 23.4C5.80001 24.283 6.51692 25 7.39999 25C8.28306 25 8.99998 24.283 8.99998 23.4C8.99998 22.5169 8.28306 21.8 7.39999 21.8ZM7.39999 21.8V16.9111M18.0528 3.47041C16.8865 1.91524 15.0559 1 13.112 1H12.888C10.944 1 9.11355 1.91524 7.94721 3.47041C7.94716 3.47046 7.94706 3.47056 7.94701 3.4706C7.59199 3.94408 7.39999 4.51988 7.39999 5.11172V8.19995C7.39999 11.2928 9.90719 13.8 13 13.8C16.0928 13.8 18.6 11.2928 18.6 8.19995V5.11172C18.6 4.51988 18.408 3.94408 18.053 3.4706C18.0529 3.47056 18.0529 3.47046 18.0528 3.47041Z" stroke="#454545" stroke-miterlimit="10" stroke-linecap="round" stroke-linejoin="round"/>
</svg>
