<svg width="24" height="16" viewBox="0 0 24 16" fill="none" xmlns="http://www.w3.org/2000/svg">
<path fill-rule="evenodd" clip-rule="evenodd" d="M0 1.33333C0 0.59696 0.59696 0 1.33333 0H22.6667C23.4031 0 24 0.59696 24 1.33333C24 2.06971 23.4031 2.66667 22.6667 2.66667H1.33333C0.59696 2.66667 0 2.06971 0 1.33333ZM0 8C0 7.2636 0.59696 6.66667 1.33333 6.66667H22.6667C23.4031 6.66667 24 7.2636 24 8C24 8.7364 23.4031 9.33333 22.6667 9.33333H1.33333C0.59696 9.33333 0 8.7364 0 8ZM1.33333 13.3333C0.59696 13.3333 0 13.9303 0 14.6667C0 15.4031 0.59696 16 1.33333 16H22.6667C23.4031 16 24 15.4031 24 14.6667C24 13.9303 23.4031 13.3333 22.6667 13.3333H1.33333Z" fill="#FF8686"/>
</svg>
