<svg width="21" height="24" viewBox="0 0 21 24" fill="none" xmlns="http://www.w3.org/2000/svg">
<path d="M10.5 0C7.02618 0 4.2 2.82618 4.2 6.3C4.2 9.77382 7.02618 12.6 10.5 12.6C13.9738 12.6 16.8 9.77382 16.8 6.3C16.8 2.82618 13.9738 0 10.5 0ZM10.5 11.2C7.79814 11.2 5.6 9.00186 5.6 6.3C5.6 3.59814 7.79814 1.4 10.5 1.4C13.2019 1.4 15.4 3.59814 15.4 6.3C15.4 9.00186 13.2019 11.2 10.5 11.2Z" fill="#FF8686"/>
<path d="M18.3384 16.7158C16.6136 14.9645 14.3271 14 11.9 14H9.1C6.67296 14 4.38639 14.9645 2.66159 16.7158C0.945233 18.4585 0 20.7589 0 23.1933C0 23.5799 0.313413 23.8933 0.7 23.8933H20.3C20.6866 23.8933 21 23.5799 21 23.1933C21 20.7589 20.0548 18.4585 18.3384 16.7158ZM1.4308 22.4933C1.7815 18.5227 5.08718 15.4 9.1 15.4H11.9C15.9128 15.4 19.2185 18.5227 19.5692 22.4933H1.4308Z" fill="#FF8686"/>
</svg>
