<svg width="30" height="30" viewBox="0 0 30 30" fill="none" xmlns="http://www.w3.org/2000/svg">
<circle cx="15" cy="15" r="15" fill="#F44C71"/>
<mask id="path-2-inside-1_99_281" fill="white">
<path d="M20.022 20.1918C19.9564 20.1918 19.8935 20.2178 19.8471 20.2642C19.8008 20.3106 19.7747 20.3735 19.7747 20.4391C19.7747 20.5047 19.8008 20.5676 19.8471 20.614C19.8935 20.6603 19.9564 20.6864 20.022 20.6864C20.1773 20.6866 20.3261 20.7483 20.4359 20.8581C20.5457 20.9679 20.6074 21.1167 20.6076 21.272C20.6076 21.3376 20.6337 21.4005 20.68 21.4468C20.7264 21.4932 20.7893 21.5193 20.8549 21.5193C20.9205 21.5193 20.9834 21.4932 21.0298 21.4468C21.0761 21.4005 21.1022 21.3376 21.1022 21.272C21.1019 20.9856 20.9879 20.711 20.7854 20.5085C20.5829 20.306 20.3084 20.1921 20.022 20.1918Z"/>
<path d="M18.5826 19.0287C18.2933 19.029 18.0159 19.1441 17.8114 19.3487C17.6068 19.5533 17.4917 19.8307 17.4914 20.12C17.4914 20.1856 17.5175 20.2485 17.5638 20.2949C17.6102 20.3412 17.6731 20.3673 17.7387 20.3673C17.8043 20.3673 17.8672 20.3412 17.9136 20.2949C17.9599 20.2485 17.986 20.1856 17.986 20.12C17.9861 19.9618 18.049 19.8101 18.1609 19.6982C18.2727 19.5864 18.4244 19.5234 18.5826 19.5232C18.6482 19.5232 18.7111 19.4972 18.7575 19.4508C18.8039 19.4044 18.8299 19.3415 18.8299 19.276C18.8299 19.2104 18.8039 19.1475 18.7575 19.1011C18.7111 19.0547 18.6482 19.0287 18.5826 19.0287Z"/>
<path d="M13.4228 16.3576V16.9242C13.4228 16.9898 13.4488 17.0527 13.4952 17.0991C13.5416 17.1455 13.6045 17.1715 13.67 17.1715C13.7356 17.1715 13.7985 17.1455 13.8449 17.0991C13.8913 17.0527 13.9173 16.9898 13.9173 16.9242V16.3576C14.3888 16.2972 14.8222 16.0672 15.1365 15.7106C15.4508 15.354 15.6246 14.8952 15.6254 14.4199C15.6254 14.3543 15.5993 14.2914 15.5529 14.2451C15.5066 14.1987 15.4437 14.1726 15.3781 14.1726C15.1018 14.1728 14.8286 14.2318 14.5768 14.3455C14.325 14.4592 14.1002 14.6252 13.9173 14.8324V14.3859C14.2515 14.0142 14.4302 13.5285 14.4168 13.029C14.4033 12.5294 14.1986 12.054 13.845 11.7009C13.7986 11.6546 13.7357 11.6286 13.6701 11.6286C13.6045 11.6286 13.5416 11.6546 13.4952 11.7009C13.1427 12.0546 12.9388 12.5298 12.9253 13.029C12.9118 13.5282 13.0898 14.0137 13.4228 14.3859V14.8324C13.24 14.6252 13.0153 14.4591 12.7634 14.3454C12.5116 14.2316 12.2385 14.1727 11.9622 14.1726C11.8966 14.1726 11.8337 14.1987 11.7873 14.2451C11.7409 14.2914 11.7149 14.3543 11.7149 14.4199C11.7156 14.8952 11.8894 15.354 12.2037 15.7106C12.518 16.0672 12.9513 16.2971 13.4228 16.3576ZM15.1054 14.6926C15.0502 14.9805 14.91 15.2453 14.7027 15.4526C14.4955 15.6599 14.2308 15.8003 13.9429 15.8555C13.9981 15.5676 14.1383 15.3029 14.3456 15.0956C14.5528 14.8882 14.8175 14.7479 15.1054 14.6926ZM13.6703 12.2621C13.8351 12.5046 13.9231 12.791 13.9231 13.0841C13.9231 13.3772 13.8351 13.6636 13.6703 13.9061C13.5057 13.6635 13.4176 13.377 13.4176 13.0838C13.4176 12.7905 13.5056 12.504 13.6702 12.2614L13.6703 12.2621ZM13.3973 15.8555C13.1095 15.8003 12.8449 15.66 12.6377 15.4528C12.4305 15.2456 12.2903 14.981 12.235 14.6932C12.5228 14.7484 12.7874 14.8887 12.9946 15.0959C13.2018 15.3031 13.3421 15.5677 13.3973 15.8555Z"/>
<path d="M9.86594 14.4C9.86591 15.1524 10.089 15.8879 10.507 16.5136C10.925 17.1392 11.5192 17.6268 12.2143 17.9148C12.9094 18.2027 13.6744 18.2781 14.4123 18.1313C15.1503 17.9845 15.8282 17.6222 16.3602 17.0901C16.8922 16.5581 17.2546 15.8802 17.4014 15.1423C17.5481 14.4043 17.4728 13.6394 17.1848 12.9442C16.8969 12.2491 16.4093 11.655 15.7836 11.237C15.158 10.8189 14.4225 10.5959 13.67 10.5959C12.6615 10.597 11.6946 10.9982 10.9814 11.7114C10.2683 12.4245 9.8671 13.3914 9.86594 14.4ZM13.67 11.0905C14.3246 11.0905 14.9645 11.2846 15.5087 11.6482C16.053 12.0119 16.4772 12.5288 16.7276 13.1335C16.9781 13.7382 17.0437 14.4037 16.916 15.0456C16.7883 15.6876 16.4731 16.2773 16.0102 16.7402C15.5474 17.203 14.9577 17.5182 14.3157 17.6459C13.6737 17.7736 13.0083 17.7081 12.4036 17.4576C11.7988 17.2071 11.2819 16.7829 10.9183 16.2387C10.5546 15.6944 10.3605 15.0546 10.3605 14.4C10.3615 13.5226 10.7105 12.6814 11.331 12.0609C11.9514 11.4405 12.7926 11.0915 13.67 11.0905Z"/>
<path d="M23.0416 21.1688C23.015 20.8362 22.8848 20.5203 22.6694 20.2656C22.4539 20.0108 22.164 19.83 21.8404 19.7486C21.8404 19.7362 21.8404 19.7238 21.8404 19.7115C21.8399 19.3126 21.689 18.9285 21.418 18.6358C21.147 18.3431 20.7757 18.1632 20.378 18.132C20.3653 18.0765 20.3497 18.0227 20.3313 17.9695C20.4857 16.8052 20.5681 15.6325 20.5781 14.4581V14.3419C20.5781 11.3713 19.8794 8.00705 19.8119 7.68896V6.2473C19.8119 6.18171 19.7858 6.11881 19.7394 6.07243C19.6931 6.02605 19.6302 6 19.5646 6H8.21344C8.18096 5.99998 8.14879 6.00637 8.11878 6.01879C8.08877 6.03121 8.0615 6.04942 8.03853 6.07239C8.01557 6.09536 7.99735 6.12263 7.98493 6.15264C7.97251 6.18265 7.96612 6.21481 7.96614 6.2473V7.68867C7.89845 8.00747 7.19995 11.3714 7.19995 14.3419V14.4581C7.19995 17.4286 7.89845 20.7925 7.96614 21.111V22.5524C7.96612 22.5849 7.97251 22.6171 7.98493 22.6471C7.99735 22.6771 8.01557 22.7043 8.03853 22.7273C8.0615 22.7503 8.08877 22.7685 8.11878 22.7809C8.14879 22.7933 8.18096 22.7997 8.21344 22.7997H23.7526C23.7851 22.7997 23.8173 22.7933 23.8473 22.7809C23.8773 22.7685 23.9046 22.7503 23.9275 22.7273C23.9505 22.7043 23.9687 22.6771 23.9811 22.6471C23.9936 22.6171 24 22.5849 23.9999 22.5524C24.0013 22.2513 23.9101 21.9571 23.7387 21.7096C23.5673 21.4621 23.3239 21.2733 23.0416 21.1688ZM8.46073 6.49459H19.3173V7.4678H8.46073V6.49459ZM7.69454 14.3419C7.69454 11.7018 8.25767 8.73678 8.41523 7.9624H19.3632C19.5201 8.73678 20.0839 11.7018 20.0839 14.3419V14.4581C20.0776 15.4073 20.0202 16.3554 19.9122 17.2984C19.6951 17.0855 19.4252 16.9342 19.1303 16.86C18.8354 16.7859 18.5261 16.7915 18.2341 16.8764C17.9421 16.9613 17.6779 17.1223 17.4687 17.343C17.2595 17.5637 17.1128 17.8361 17.0436 18.1322C16.6462 18.1638 16.2752 18.344 16.0045 18.6367C15.7339 18.9294 15.5833 19.3133 15.5828 19.712C15.5828 19.7243 15.5828 19.7368 15.5828 19.7492C15.3153 19.8168 15.0697 19.9526 14.8702 20.1433C14.6706 20.334 14.5239 20.5731 14.4442 20.8373H8.41467C8.25767 20.0629 7.69398 17.0979 7.69398 14.4578L7.69454 14.3419ZM8.46073 21.3322H14.0664C13.9021 21.4437 13.7621 21.5875 13.655 21.7548C13.548 21.9221 13.4761 22.1094 13.4437 22.3054H8.46073V21.3322ZM16.6619 22.3054C16.7113 22.1815 16.7966 22.0752 16.907 22.0002C17.0173 21.9253 17.1476 21.8851 17.281 21.8848C17.3466 21.8848 17.4095 21.8588 17.4559 21.8124C17.5022 21.766 17.5283 21.7031 17.5283 21.6376C17.5283 21.572 17.5022 21.5091 17.4559 21.4627C17.4095 21.4163 17.3466 21.3903 17.281 21.3903C17.0158 21.3907 16.7587 21.4816 16.5523 21.648C16.3458 21.8144 16.2024 22.0464 16.1457 22.3054H13.9483C13.9931 22.1307 14.0854 21.9719 14.215 21.8465C14.3445 21.721 14.5062 21.6339 14.6823 21.5947C14.739 21.5818 14.7894 21.5494 14.8245 21.5031C14.8597 21.4567 14.8774 21.3995 14.8746 21.3414L14.8729 21.3141C14.8729 21.305 14.8715 21.2959 14.8715 21.2867C14.8728 21.0135 14.9762 20.7507 15.1614 20.5499C15.3466 20.349 15.6002 20.2247 15.8724 20.2014C15.9069 20.1986 15.9404 20.1887 15.9708 20.1721C16.0012 20.1556 16.0278 20.1329 16.0488 20.1054C16.0699 20.078 16.0849 20.0464 16.093 20.0128C16.1011 19.9791 16.1021 19.9442 16.0958 19.9102C16.0834 19.8449 16.077 19.7787 16.0767 19.7123C16.077 19.4233 16.192 19.1462 16.3963 18.9419C16.6007 18.7375 16.8778 18.6225 17.1668 18.6222C17.1835 18.6222 17.1999 18.6235 17.2163 18.6246L17.2376 18.6261C17.3017 18.6301 17.3647 18.609 17.4136 18.5673C17.4624 18.5257 17.4931 18.4667 17.4992 18.4028C17.5283 18.1017 17.6685 17.8223 17.8924 17.619C18.1163 17.4157 18.4079 17.3031 18.7104 17.3031C19.0128 17.3031 19.3044 17.4157 19.5283 17.619C19.7522 17.8223 19.8924 18.1017 19.9215 18.4028C19.9275 18.4669 19.9583 18.5261 20.0074 18.5678C20.0564 18.6095 20.1197 18.6304 20.184 18.6261L20.2023 18.6248C20.2201 18.6235 20.2379 18.6221 20.256 18.6221C20.4161 18.6214 20.5744 18.6562 20.7195 18.7239C20.8646 18.7916 20.9929 18.8905 21.0953 19.0136C21.1977 19.1368 21.2715 19.281 21.3116 19.436C21.3516 19.591 21.3569 19.753 21.327 19.9103C21.3207 19.9443 21.3217 19.9793 21.3298 20.0129C21.3378 20.0465 21.3529 20.0781 21.3739 20.1056C21.395 20.133 21.4215 20.1557 21.4519 20.1723C21.4823 20.1888 21.5158 20.1988 21.5503 20.2015C21.8225 20.2249 22.0761 20.3492 22.2614 20.55C22.4466 20.7508 22.55 21.0136 22.5514 21.2868C22.5514 21.2959 22.5513 21.3046 22.5501 21.3135L22.5482 21.3418C22.5454 21.3999 22.5631 21.4571 22.5982 21.5034C22.6334 21.5498 22.6837 21.5822 22.7404 21.5952C22.9164 21.6343 23.0782 21.7214 23.2078 21.8469C23.3373 21.9723 23.4296 22.1311 23.4744 22.3058L16.6619 22.3054Z"/>
<path d="M9.44539 9.15733H11.5019C11.5675 9.15733 11.6304 9.13127 11.6768 9.0849C11.7231 9.03852 11.7492 8.97562 11.7492 8.91003C11.7492 8.84445 11.7231 8.78154 11.6768 8.73517C11.6304 8.68879 11.5675 8.66274 11.5019 8.66274H9.44539C9.37981 8.66274 9.31691 8.68879 9.27053 8.73517C9.22415 8.78154 9.1981 8.84445 9.1981 8.91003C9.1981 8.97562 9.22415 9.03852 9.27053 9.0849C9.31691 9.13127 9.37981 9.15733 9.44539 9.15733Z"/>
<path d="M12.4941 9.15733H13.0563C13.1219 9.15733 13.1848 9.13127 13.2312 9.0849C13.2776 9.03852 13.3036 8.97562 13.3036 8.91003C13.3036 8.84445 13.2776 8.78154 13.2312 8.73517C13.1848 8.68879 13.1219 8.66274 13.0563 8.66274H12.4941C12.4285 8.66274 12.3656 8.68879 12.3192 8.73517C12.2728 8.78154 12.2468 8.84445 12.2468 8.91003C12.2468 8.97562 12.2728 9.03852 12.3192 9.0849C12.3656 9.13127 12.4285 9.15733 12.4941 9.15733Z"/>
</mask>
<path d="M20.022 20.1918C19.9564 20.1918 19.8935 20.2178 19.8471 20.2642C19.8008 20.3106 19.7747 20.3735 19.7747 20.4391C19.7747 20.5047 19.8008 20.5676 19.8471 20.614C19.8935 20.6603 19.9564 20.6864 20.022 20.6864C20.1773 20.6866 20.3261 20.7483 20.4359 20.8581C20.5457 20.9679 20.6074 21.1167 20.6076 21.272C20.6076 21.3376 20.6337 21.4005 20.68 21.4468C20.7264 21.4932 20.7893 21.5193 20.8549 21.5193C20.9205 21.5193 20.9834 21.4932 21.0298 21.4468C21.0761 21.4005 21.1022 21.3376 21.1022 21.272C21.1019 20.9856 20.9879 20.711 20.7854 20.5085C20.5829 20.306 20.3084 20.1921 20.022 20.1918Z" fill="white"/>
<path d="M18.5826 19.0287C18.2933 19.029 18.0159 19.1441 17.8114 19.3487C17.6068 19.5533 17.4917 19.8307 17.4914 20.12C17.4914 20.1856 17.5175 20.2485 17.5638 20.2949C17.6102 20.3412 17.6731 20.3673 17.7387 20.3673C17.8043 20.3673 17.8672 20.3412 17.9136 20.2949C17.9599 20.2485 17.986 20.1856 17.986 20.12C17.9861 19.9618 18.049 19.8101 18.1609 19.6982C18.2727 19.5864 18.4244 19.5234 18.5826 19.5232C18.6482 19.5232 18.7111 19.4972 18.7575 19.4508C18.8039 19.4044 18.8299 19.3415 18.8299 19.276C18.8299 19.2104 18.8039 19.1475 18.7575 19.1011C18.7111 19.0547 18.6482 19.0287 18.5826 19.0287Z" fill="white"/>
<path d="M13.4228 16.3576V16.9242C13.4228 16.9898 13.4488 17.0527 13.4952 17.0991C13.5416 17.1455 13.6045 17.1715 13.67 17.1715C13.7356 17.1715 13.7985 17.1455 13.8449 17.0991C13.8913 17.0527 13.9173 16.9898 13.9173 16.9242V16.3576C14.3888 16.2972 14.8222 16.0672 15.1365 15.7106C15.4508 15.354 15.6246 14.8952 15.6254 14.4199C15.6254 14.3543 15.5993 14.2914 15.5529 14.2451C15.5066 14.1987 15.4437 14.1726 15.3781 14.1726C15.1018 14.1728 14.8286 14.2318 14.5768 14.3455C14.325 14.4592 14.1002 14.6252 13.9173 14.8324V14.3859C14.2515 14.0142 14.4302 13.5285 14.4168 13.029C14.4033 12.5294 14.1986 12.054 13.845 11.7009C13.7986 11.6546 13.7357 11.6286 13.6701 11.6286C13.6045 11.6286 13.5416 11.6546 13.4952 11.7009C13.1427 12.0546 12.9388 12.5298 12.9253 13.029C12.9118 13.5282 13.0898 14.0137 13.4228 14.3859V14.8324C13.24 14.6252 13.0153 14.4591 12.7634 14.3454C12.5116 14.2316 12.2385 14.1727 11.9622 14.1726C11.8966 14.1726 11.8337 14.1987 11.7873 14.2451C11.7409 14.2914 11.7149 14.3543 11.7149 14.4199C11.7156 14.8952 11.8894 15.354 12.2037 15.7106C12.518 16.0672 12.9513 16.2971 13.4228 16.3576ZM15.1054 14.6926C15.0502 14.9805 14.91 15.2453 14.7027 15.4526C14.4955 15.6599 14.2308 15.8003 13.9429 15.8555C13.9981 15.5676 14.1383 15.3029 14.3456 15.0956C14.5528 14.8882 14.8175 14.7479 15.1054 14.6926ZM13.6703 12.2621C13.8351 12.5046 13.9231 12.791 13.9231 13.0841C13.9231 13.3772 13.8351 13.6636 13.6703 13.9061C13.5057 13.6635 13.4176 13.377 13.4176 13.0838C13.4176 12.7905 13.5056 12.504 13.6702 12.2614L13.6703 12.2621ZM13.3973 15.8555C13.1095 15.8003 12.8449 15.66 12.6377 15.4528C12.4305 15.2456 12.2903 14.981 12.235 14.6932C12.5228 14.7484 12.7874 14.8887 12.9946 15.0959C13.2018 15.3031 13.3421 15.5677 13.3973 15.8555Z" fill="white"/>
<path d="M9.86594 14.4C9.86591 15.1524 10.089 15.8879 10.507 16.5136C10.925 17.1392 11.5192 17.6268 12.2143 17.9148C12.9094 18.2027 13.6744 18.2781 14.4123 18.1313C15.1503 17.9845 15.8282 17.6222 16.3602 17.0901C16.8922 16.5581 17.2546 15.8802 17.4014 15.1423C17.5481 14.4043 17.4728 13.6394 17.1848 12.9442C16.8969 12.2491 16.4093 11.655 15.7836 11.237C15.158 10.8189 14.4225 10.5959 13.67 10.5959C12.6615 10.597 11.6946 10.9982 10.9814 11.7114C10.2683 12.4245 9.8671 13.3914 9.86594 14.4ZM13.67 11.0905C14.3246 11.0905 14.9645 11.2846 15.5087 11.6482C16.053 12.0119 16.4772 12.5288 16.7276 13.1335C16.9781 13.7382 17.0437 14.4037 16.916 15.0456C16.7883 15.6876 16.4731 16.2773 16.0102 16.7402C15.5474 17.203 14.9577 17.5182 14.3157 17.6459C13.6737 17.7736 13.0083 17.7081 12.4036 17.4576C11.7988 17.2071 11.2819 16.7829 10.9183 16.2387C10.5546 15.6944 10.3605 15.0546 10.3605 14.4C10.3615 13.5226 10.7105 12.6814 11.331 12.0609C11.9514 11.4405 12.7926 11.0915 13.67 11.0905Z" fill="white"/>
<path d="M23.0416 21.1688C23.015 20.8362 22.8848 20.5203 22.6694 20.2656C22.4539 20.0108 22.164 19.83 21.8404 19.7486C21.8404 19.7362 21.8404 19.7238 21.8404 19.7115C21.8399 19.3126 21.689 18.9285 21.418 18.6358C21.147 18.3431 20.7757 18.1632 20.378 18.132C20.3653 18.0765 20.3497 18.0227 20.3313 17.9695C20.4857 16.8052 20.5681 15.6325 20.5781 14.4581V14.3419C20.5781 11.3713 19.8794 8.00705 19.8119 7.68896V6.2473C19.8119 6.18171 19.7858 6.11881 19.7394 6.07243C19.6931 6.02605 19.6302 6 19.5646 6H8.21344C8.18096 5.99998 8.14879 6.00637 8.11878 6.01879C8.08877 6.03121 8.0615 6.04942 8.03853 6.07239C8.01557 6.09536 7.99735 6.12263 7.98493 6.15264C7.97251 6.18265 7.96612 6.21481 7.96614 6.2473V7.68867C7.89845 8.00747 7.19995 11.3714 7.19995 14.3419V14.4581C7.19995 17.4286 7.89845 20.7925 7.96614 21.111V22.5524C7.96612 22.5849 7.97251 22.6171 7.98493 22.6471C7.99735 22.6771 8.01557 22.7043 8.03853 22.7273C8.0615 22.7503 8.08877 22.7685 8.11878 22.7809C8.14879 22.7933 8.18096 22.7997 8.21344 22.7997H23.7526C23.7851 22.7997 23.8173 22.7933 23.8473 22.7809C23.8773 22.7685 23.9046 22.7503 23.9275 22.7273C23.9505 22.7043 23.9687 22.6771 23.9811 22.6471C23.9936 22.6171 24 22.5849 23.9999 22.5524C24.0013 22.2513 23.9101 21.9571 23.7387 21.7096C23.5673 21.4621 23.3239 21.2733 23.0416 21.1688ZM8.46073 6.49459H19.3173V7.4678H8.46073V6.49459ZM7.69454 14.3419C7.69454 11.7018 8.25767 8.73678 8.41523 7.9624H19.3632C19.5201 8.73678 20.0839 11.7018 20.0839 14.3419V14.4581C20.0776 15.4073 20.0202 16.3554 19.9122 17.2984C19.6951 17.0855 19.4252 16.9342 19.1303 16.86C18.8354 16.7859 18.5261 16.7915 18.2341 16.8764C17.9421 16.9613 17.6779 17.1223 17.4687 17.343C17.2595 17.5637 17.1128 17.8361 17.0436 18.1322C16.6462 18.1638 16.2752 18.344 16.0045 18.6367C15.7339 18.9294 15.5833 19.3133 15.5828 19.712C15.5828 19.7243 15.5828 19.7368 15.5828 19.7492C15.3153 19.8168 15.0697 19.9526 14.8702 20.1433C14.6706 20.334 14.5239 20.5731 14.4442 20.8373H8.41467C8.25767 20.0629 7.69398 17.0979 7.69398 14.4578L7.69454 14.3419ZM8.46073 21.3322H14.0664C13.9021 21.4437 13.7621 21.5875 13.655 21.7548C13.548 21.9221 13.4761 22.1094 13.4437 22.3054H8.46073V21.3322ZM16.6619 22.3054C16.7113 22.1815 16.7966 22.0752 16.907 22.0002C17.0173 21.9253 17.1476 21.8851 17.281 21.8848C17.3466 21.8848 17.4095 21.8588 17.4559 21.8124C17.5022 21.766 17.5283 21.7031 17.5283 21.6376C17.5283 21.572 17.5022 21.5091 17.4559 21.4627C17.4095 21.4163 17.3466 21.3903 17.281 21.3903C17.0158 21.3907 16.7587 21.4816 16.5523 21.648C16.3458 21.8144 16.2024 22.0464 16.1457 22.3054H13.9483C13.9931 22.1307 14.0854 21.9719 14.215 21.8465C14.3445 21.721 14.5062 21.6339 14.6823 21.5947C14.739 21.5818 14.7894 21.5494 14.8245 21.5031C14.8597 21.4567 14.8774 21.3995 14.8746 21.3414L14.8729 21.3141C14.8729 21.305 14.8715 21.2959 14.8715 21.2867C14.8728 21.0135 14.9762 20.7507 15.1614 20.5499C15.3466 20.349 15.6002 20.2247 15.8724 20.2014C15.9069 20.1986 15.9404 20.1887 15.9708 20.1721C16.0012 20.1556 16.0278 20.1329 16.0488 20.1054C16.0699 20.078 16.0849 20.0464 16.093 20.0128C16.1011 19.9791 16.1021 19.9442 16.0958 19.9102C16.0834 19.8449 16.077 19.7787 16.0767 19.7123C16.077 19.4233 16.192 19.1462 16.3963 18.9419C16.6007 18.7375 16.8778 18.6225 17.1668 18.6222C17.1835 18.6222 17.1999 18.6235 17.2163 18.6246L17.2376 18.6261C17.3017 18.6301 17.3647 18.609 17.4136 18.5673C17.4624 18.5257 17.4931 18.4667 17.4992 18.4028C17.5283 18.1017 17.6685 17.8223 17.8924 17.619C18.1163 17.4157 18.4079 17.3031 18.7104 17.3031C19.0128 17.3031 19.3044 17.4157 19.5283 17.619C19.7522 17.8223 19.8924 18.1017 19.9215 18.4028C19.9275 18.4669 19.9583 18.5261 20.0074 18.5678C20.0564 18.6095 20.1197 18.6304 20.184 18.6261L20.2023 18.6248C20.2201 18.6235 20.2379 18.6221 20.256 18.6221C20.4161 18.6214 20.5744 18.6562 20.7195 18.7239C20.8646 18.7916 20.9929 18.8905 21.0953 19.0136C21.1977 19.1368 21.2715 19.281 21.3116 19.436C21.3516 19.591 21.3569 19.753 21.327 19.9103C21.3207 19.9443 21.3217 19.9793 21.3298 20.0129C21.3378 20.0465 21.3529 20.0781 21.3739 20.1056C21.395 20.133 21.4215 20.1557 21.4519 20.1723C21.4823 20.1888 21.5158 20.1988 21.5503 20.2015C21.8225 20.2249 22.0761 20.3492 22.2614 20.55C22.4466 20.7508 22.55 21.0136 22.5514 21.2868C22.5514 21.2959 22.5513 21.3046 22.5501 21.3135L22.5482 21.3418C22.5454 21.3999 22.5631 21.4571 22.5982 21.5034C22.6334 21.5498 22.6837 21.5822 22.7404 21.5952C22.9164 21.6343 23.0782 21.7214 23.2078 21.8469C23.3373 21.9723 23.4296 22.1311 23.4744 22.3058L16.6619 22.3054Z" fill="white"/>
<path d="M9.44539 9.15733H11.5019C11.5675 9.15733 11.6304 9.13127 11.6768 9.0849C11.7231 9.03852 11.7492 8.97562 11.7492 8.91003C11.7492 8.84445 11.7231 8.78154 11.6768 8.73517C11.6304 8.68879 11.5675 8.66274 11.5019 8.66274H9.44539C9.37981 8.66274 9.31691 8.68879 9.27053 8.73517C9.22415 8.78154 9.1981 8.84445 9.1981 8.91003C9.1981 8.97562 9.22415 9.03852 9.27053 9.0849C9.31691 9.13127 9.37981 9.15733 9.44539 9.15733Z" fill="white"/>
<path d="M12.4941 9.15733H13.0563C13.1219 9.15733 13.1848 9.13127 13.2312 9.0849C13.2776 9.03852 13.3036 8.97562 13.3036 8.91003C13.3036 8.84445 13.2776 8.78154 13.2312 8.73517C13.1848 8.68879 13.1219 8.66274 13.0563 8.66274H12.4941C12.4285 8.66274 12.3656 8.68879 12.3192 8.73517C12.2728 8.78154 12.2468 8.84445 12.2468 8.91003C12.2468 8.97562 12.2728 9.03852 12.3192 9.0849C12.3656 9.13127 12.4285 9.15733 12.4941 9.15733Z" fill="white"/>
<path d="M20.022 20.1918C19.9564 20.1918 19.8935 20.2178 19.8471 20.2642C19.8008 20.3106 19.7747 20.3735 19.7747 20.4391C19.7747 20.5047 19.8008 20.5676 19.8471 20.614C19.8935 20.6603 19.9564 20.6864 20.022 20.6864C20.1773 20.6866 20.3261 20.7483 20.4359 20.8581C20.5457 20.9679 20.6074 21.1167 20.6076 21.272C20.6076 21.3376 20.6337 21.4005 20.68 21.4468C20.7264 21.4932 20.7893 21.5193 20.8549 21.5193C20.9205 21.5193 20.9834 21.4932 21.0298 21.4468C21.0761 21.4005 21.1022 21.3376 21.1022 21.272C21.1019 20.9856 20.9879 20.711 20.7854 20.5085C20.5829 20.306 20.3084 20.1921 20.022 20.1918Z" stroke="white" stroke-width="86" mask="url(#path-2-inside-1_99_281)"/>
<path d="M18.5826 19.0287C18.2933 19.029 18.0159 19.1441 17.8114 19.3487C17.6068 19.5533 17.4917 19.8307 17.4914 20.12C17.4914 20.1856 17.5175 20.2485 17.5638 20.2949C17.6102 20.3412 17.6731 20.3673 17.7387 20.3673C17.8043 20.3673 17.8672 20.3412 17.9136 20.2949C17.9599 20.2485 17.986 20.1856 17.986 20.12C17.9861 19.9618 18.049 19.8101 18.1609 19.6982C18.2727 19.5864 18.4244 19.5234 18.5826 19.5232C18.6482 19.5232 18.7111 19.4972 18.7575 19.4508C18.8039 19.4044 18.8299 19.3415 18.8299 19.276C18.8299 19.2104 18.8039 19.1475 18.7575 19.1011C18.7111 19.0547 18.6482 19.0287 18.5826 19.0287Z" stroke="white" stroke-width="86" mask="url(#path-2-inside-1_99_281)"/>
<path d="M13.4228 16.3576V16.9242C13.4228 16.9898 13.4488 17.0527 13.4952 17.0991C13.5416 17.1455 13.6045 17.1715 13.67 17.1715C13.7356 17.1715 13.7985 17.1455 13.8449 17.0991C13.8913 17.0527 13.9173 16.9898 13.9173 16.9242V16.3576C14.3888 16.2972 14.8222 16.0672 15.1365 15.7106C15.4508 15.354 15.6246 14.8952 15.6254 14.4199C15.6254 14.3543 15.5993 14.2914 15.5529 14.2451C15.5066 14.1987 15.4437 14.1726 15.3781 14.1726C15.1018 14.1728 14.8286 14.2318 14.5768 14.3455C14.325 14.4592 14.1002 14.6252 13.9173 14.8324V14.3859C14.2515 14.0142 14.4302 13.5285 14.4168 13.029C14.4033 12.5294 14.1986 12.054 13.845 11.7009C13.7986 11.6546 13.7357 11.6286 13.6701 11.6286C13.6045 11.6286 13.5416 11.6546 13.4952 11.7009C13.1427 12.0546 12.9388 12.5298 12.9253 13.029C12.9118 13.5282 13.0898 14.0137 13.4228 14.3859V14.8324C13.24 14.6252 13.0153 14.4591 12.7634 14.3454C12.5116 14.2316 12.2385 14.1727 11.9622 14.1726C11.8966 14.1726 11.8337 14.1987 11.7873 14.2451C11.7409 14.2914 11.7149 14.3543 11.7149 14.4199C11.7156 14.8952 11.8894 15.354 12.2037 15.7106C12.518 16.0672 12.9513 16.2971 13.4228 16.3576ZM15.1054 14.6926C15.0502 14.9805 14.91 15.2453 14.7027 15.4526C14.4955 15.6599 14.2308 15.8003 13.9429 15.8555C13.9981 15.5676 14.1383 15.3029 14.3456 15.0956C14.5528 14.8882 14.8175 14.7479 15.1054 14.6926ZM13.6703 12.2621C13.8351 12.5046 13.9231 12.791 13.9231 13.0841C13.9231 13.3772 13.8351 13.6636 13.6703 13.9061C13.5057 13.6635 13.4176 13.377 13.4176 13.0838C13.4176 12.7905 13.5056 12.504 13.6702 12.2614L13.6703 12.2621ZM13.3973 15.8555C13.1095 15.8003 12.8449 15.66 12.6377 15.4528C12.4305 15.2456 12.2903 14.981 12.235 14.6932C12.5228 14.7484 12.7874 14.8887 12.9946 15.0959C13.2018 15.3031 13.3421 15.5677 13.3973 15.8555Z" stroke="white" stroke-width="86" mask="url(#path-2-inside-1_99_281)"/>
<path d="M9.86594 14.4C9.86591 15.1524 10.089 15.8879 10.507 16.5136C10.925 17.1392 11.5192 17.6268 12.2143 17.9148C12.9094 18.2027 13.6744 18.2781 14.4123 18.1313C15.1503 17.9845 15.8282 17.6222 16.3602 17.0901C16.8922 16.5581 17.2546 15.8802 17.4014 15.1423C17.5481 14.4043 17.4728 13.6394 17.1848 12.9442C16.8969 12.2491 16.4093 11.655 15.7836 11.237C15.158 10.8189 14.4225 10.5959 13.67 10.5959C12.6615 10.597 11.6946 10.9982 10.9814 11.7114C10.2683 12.4245 9.8671 13.3914 9.86594 14.4ZM13.67 11.0905C14.3246 11.0905 14.9645 11.2846 15.5087 11.6482C16.053 12.0119 16.4772 12.5288 16.7276 13.1335C16.9781 13.7382 17.0437 14.4037 16.916 15.0456C16.7883 15.6876 16.4731 16.2773 16.0102 16.7402C15.5474 17.203 14.9577 17.5182 14.3157 17.6459C13.6737 17.7736 13.0083 17.7081 12.4036 17.4576C11.7988 17.2071 11.2819 16.7829 10.9183 16.2387C10.5546 15.6944 10.3605 15.0546 10.3605 14.4C10.3615 13.5226 10.7105 12.6814 11.331 12.0609C11.9514 11.4405 12.7926 11.0915 13.67 11.0905Z" stroke="white" stroke-width="86" mask="url(#path-2-inside-1_99_281)"/>
<path d="M23.0416 21.1688C23.015 20.8362 22.8848 20.5203 22.6694 20.2656C22.4539 20.0108 22.164 19.83 21.8404 19.7486C21.8404 19.7362 21.8404 19.7238 21.8404 19.7115C21.8399 19.3126 21.689 18.9285 21.418 18.6358C21.147 18.3431 20.7757 18.1632 20.378 18.132C20.3653 18.0765 20.3497 18.0227 20.3313 17.9695C20.4857 16.8052 20.5681 15.6325 20.5781 14.4581V14.3419C20.5781 11.3713 19.8794 8.00705 19.8119 7.68896V6.2473C19.8119 6.18171 19.7858 6.11881 19.7394 6.07243C19.6931 6.02605 19.6302 6 19.5646 6H8.21344C8.18096 5.99998 8.14879 6.00637 8.11878 6.01879C8.08877 6.03121 8.0615 6.04942 8.03853 6.07239C8.01557 6.09536 7.99735 6.12263 7.98493 6.15264C7.97251 6.18265 7.96612 6.21481 7.96614 6.2473V7.68867C7.89845 8.00747 7.19995 11.3714 7.19995 14.3419V14.4581C7.19995 17.4286 7.89845 20.7925 7.96614 21.111V22.5524C7.96612 22.5849 7.97251 22.6171 7.98493 22.6471C7.99735 22.6771 8.01557 22.7043 8.03853 22.7273C8.0615 22.7503 8.08877 22.7685 8.11878 22.7809C8.14879 22.7933 8.18096 22.7997 8.21344 22.7997H23.7526C23.7851 22.7997 23.8173 22.7933 23.8473 22.7809C23.8773 22.7685 23.9046 22.7503 23.9275 22.7273C23.9505 22.7043 23.9687 22.6771 23.9811 22.6471C23.9936 22.6171 24 22.5849 23.9999 22.5524C24.0013 22.2513 23.9101 21.9571 23.7387 21.7096C23.5673 21.4621 23.3239 21.2733 23.0416 21.1688ZM8.46073 6.49459H19.3173V7.4678H8.46073V6.49459ZM7.69454 14.3419C7.69454 11.7018 8.25767 8.73678 8.41523 7.9624H19.3632C19.5201 8.73678 20.0839 11.7018 20.0839 14.3419V14.4581C20.0776 15.4073 20.0202 16.3554 19.9122 17.2984C19.6951 17.0855 19.4252 16.9342 19.1303 16.86C18.8354 16.7859 18.5261 16.7915 18.2341 16.8764C17.9421 16.9613 17.6779 17.1223 17.4687 17.343C17.2595 17.5637 17.1128 17.8361 17.0436 18.1322C16.6462 18.1638 16.2752 18.344 16.0045 18.6367C15.7339 18.9294 15.5833 19.3133 15.5828 19.712C15.5828 19.7243 15.5828 19.7368 15.5828 19.7492C15.3153 19.8168 15.0697 19.9526 14.8702 20.1433C14.6706 20.334 14.5239 20.5731 14.4442 20.8373H8.41467C8.25767 20.0629 7.69398 17.0979 7.69398 14.4578L7.69454 14.3419ZM8.46073 21.3322H14.0664C13.9021 21.4437 13.7621 21.5875 13.655 21.7548C13.548 21.9221 13.4761 22.1094 13.4437 22.3054H8.46073V21.3322ZM16.6619 22.3054C16.7113 22.1815 16.7966 22.0752 16.907 22.0002C17.0173 21.9253 17.1476 21.8851 17.281 21.8848C17.3466 21.8848 17.4095 21.8588 17.4559 21.8124C17.5022 21.766 17.5283 21.7031 17.5283 21.6376C17.5283 21.572 17.5022 21.5091 17.4559 21.4627C17.4095 21.4163 17.3466 21.3903 17.281 21.3903C17.0158 21.3907 16.7587 21.4816 16.5523 21.648C16.3458 21.8144 16.2024 22.0464 16.1457 22.3054H13.9483C13.9931 22.1307 14.0854 21.9719 14.215 21.8465C14.3445 21.721 14.5062 21.6339 14.6823 21.5947C14.739 21.5818 14.7894 21.5494 14.8245 21.5031C14.8597 21.4567 14.8774 21.3995 14.8746 21.3414L14.8729 21.3141C14.8729 21.305 14.8715 21.2959 14.8715 21.2867C14.8728 21.0135 14.9762 20.7507 15.1614 20.5499C15.3466 20.349 15.6002 20.2247 15.8724 20.2014C15.9069 20.1986 15.9404 20.1887 15.9708 20.1721C16.0012 20.1556 16.0278 20.1329 16.0488 20.1054C16.0699 20.078 16.0849 20.0464 16.093 20.0128C16.1011 19.9791 16.1021 19.9442 16.0958 19.9102C16.0834 19.8449 16.077 19.7787 16.0767 19.7123C16.077 19.4233 16.192 19.1462 16.3963 18.9419C16.6007 18.7375 16.8778 18.6225 17.1668 18.6222C17.1835 18.6222 17.1999 18.6235 17.2163 18.6246L17.2376 18.6261C17.3017 18.6301 17.3647 18.609 17.4136 18.5673C17.4624 18.5257 17.4931 18.4667 17.4992 18.4028C17.5283 18.1017 17.6685 17.8223 17.8924 17.619C18.1163 17.4157 18.4079 17.3031 18.7104 17.3031C19.0128 17.3031 19.3044 17.4157 19.5283 17.619C19.7522 17.8223 19.8924 18.1017 19.9215 18.4028C19.9275 18.4669 19.9583 18.5261 20.0074 18.5678C20.0564 18.6095 20.1197 18.6304 20.184 18.6261L20.2023 18.6248C20.2201 18.6235 20.2379 18.6221 20.256 18.6221C20.4161 18.6214 20.5744 18.6562 20.7195 18.7239C20.8646 18.7916 20.9929 18.8905 21.0953 19.0136C21.1977 19.1368 21.2715 19.281 21.3116 19.436C21.3516 19.591 21.3569 19.753 21.327 19.9103C21.3207 19.9443 21.3217 19.9793 21.3298 20.0129C21.3378 20.0465 21.3529 20.0781 21.3739 20.1056C21.395 20.133 21.4215 20.1557 21.4519 20.1723C21.4823 20.1888 21.5158 20.1988 21.5503 20.2015C21.8225 20.2249 22.0761 20.3492 22.2614 20.55C22.4466 20.7508 22.55 21.0136 22.5514 21.2868C22.5514 21.2959 22.5513 21.3046 22.5501 21.3135L22.5482 21.3418C22.5454 21.3999 22.5631 21.4571 22.5982 21.5034C22.6334 21.5498 22.6837 21.5822 22.7404 21.5952C22.9164 21.6343 23.0782 21.7214 23.2078 21.8469C23.3373 21.9723 23.4296 22.1311 23.4744 22.3058L16.6619 22.3054Z" stroke="white" stroke-width="86" mask="url(#path-2-inside-1_99_281)"/>
<path d="M9.44539 9.15733H11.5019C11.5675 9.15733 11.6304 9.13127 11.6768 9.0849C11.7231 9.03852 11.7492 8.97562 11.7492 8.91003C11.7492 8.84445 11.7231 8.78154 11.6768 8.73517C11.6304 8.68879 11.5675 8.66274 11.5019 8.66274H9.44539C9.37981 8.66274 9.31691 8.68879 9.27053 8.73517C9.22415 8.78154 9.1981 8.84445 9.1981 8.91003C9.1981 8.97562 9.22415 9.03852 9.27053 9.0849C9.31691 9.13127 9.37981 9.15733 9.44539 9.15733Z" stroke="white" stroke-width="86" mask="url(#path-2-inside-1_99_281)"/>
<path d="M12.4941 9.15733H13.0563C13.1219 9.15733 13.1848 9.13127 13.2312 9.0849C13.2776 9.03852 13.3036 8.97562 13.3036 8.91003C13.3036 8.84445 13.2776 8.78154 13.2312 8.73517C13.1848 8.68879 13.1219 8.66274 13.0563 8.66274H12.4941C12.4285 8.66274 12.3656 8.68879 12.3192 8.73517C12.2728 8.78154 12.2468 8.84445 12.2468 8.91003C12.2468 8.97562 12.2728 9.03852 12.3192 9.0849C12.3656 9.13127 12.4285 9.15733 12.4941 9.15733Z" stroke="white" stroke-width="86" mask="url(#path-2-inside-1_99_281)"/>
</svg>
