<svg width="30" height="30" viewBox="0 0 30 30" fill="none" xmlns="http://www.w3.org/2000/svg">
<path d="M15 30C23.2843 30 30 23.2843 30 15C30 6.71573 23.2843 0 15 0C6.71573 0 0 6.71573 0 15C0 23.2843 6.71573 30 15 30Z" fill="#F44C71"/>
<path d="M23.4278 18.6227H22.1125C21.9221 18.6227 21.7405 18.574 21.581 18.4898V18.7865C21.581 19.4066 21.0717 19.9159 20.4473 19.9159H19.132C18.5075 19.9159 18.0027 19.411 18.0027 18.7865V16.7095C16.0053 16.116 13.9903 16.116 11.9973 16.7095V18.7865C11.9973 19.4066 11.488 19.9159 10.8636 19.9159H9.54827C8.92383 19.9159 8.41453 19.411 8.41453 18.7865V18.4898C8.25952 18.574 8.07795 18.6227 7.88308 18.6227H6.56776C5.94331 18.6227 5.43844 18.1178 5.43844 17.4934V12.5022C5.43844 11.8778 5.94331 11.3729 6.56776 11.3729H7.88308C8.07795 11.3729 8.25952 11.4216 8.41453 11.5058V11.2135C8.41453 10.589 8.92383 10.0797 9.54827 10.0797H10.8636C11.488 10.0797 11.9973 10.589 11.9973 11.2135V13.2861C13.9903 13.884 16.0053 13.884 18.0027 13.2861V11.2135C18.0027 10.589 18.5075 10.0797 19.132 10.0797H20.4473C21.0717 10.0797 21.581 10.589 21.581 11.2135V11.5058C21.7405 11.4216 21.9221 11.3729 22.1125 11.3729H23.4278C24.0523 11.3729 24.5616 11.8778 24.5616 12.5022V17.4934C24.5616 18.1134 24.0523 18.6227 23.4278 18.6227ZM11.395 11.2135C11.395 10.9167 11.1559 10.6776 10.8636 10.6776H9.54827C9.25598 10.6776 9.01683 10.9167 9.01683 11.209V18.7821C9.01683 19.0788 9.25598 19.318 9.54827 19.318H10.8636C11.1559 19.318 11.395 19.0788 11.395 18.7821V11.2135ZM6.56776 11.9708C6.27547 11.9708 6.03632 12.2099 6.03632 12.5022V17.4934C6.03632 17.7857 6.27547 18.0248 6.56776 18.0248H7.88308C8.17538 18.0248 8.41453 17.7857 8.41453 17.4934V12.5022C8.41453 12.2099 8.17538 11.9708 7.88308 11.9708H6.56776ZM18.6005 18.7821C18.6005 19.0788 18.8397 19.318 19.132 19.318H20.4473C20.7396 19.318 20.9787 19.0788 20.9787 18.7821V11.2135C20.9787 10.9167 20.7396 10.6776 20.4473 10.6776H19.132C18.8397 10.6776 18.6005 10.9167 18.6005 11.209V18.7821ZM11.9973 13.9105V16.085C13.9903 15.5226 16.0053 15.5226 18.0027 16.085V13.9105C16.0053 14.473 13.9903 14.473 11.9973 13.9105ZM22.1125 11.9708C21.8202 11.9708 21.581 12.2099 21.581 12.5022V17.4934C21.581 17.7857 21.8202 18.0248 22.1125 18.0248H23.4278C23.7201 18.0248 23.9593 17.7857 23.9593 17.4934V12.5022C23.9593 12.2099 23.7201 11.9708 23.4278 11.9708H22.1125Z" fill="white"/>
</svg>
